<svg width="21" height="18" viewBox="0 0 21 18" fill="none" xmlns="http://www.w3.org/2000/svg">
<path d="M10.1264 1.02521C10.2104 1.02521 10.2944 1.02905 10.3772 1.03675C10.46 1.04444 10.5416 1.05599 10.6207 1.07138C10.6998 1.08678 10.7765 1.10604 10.8495 1.12915C10.9226 1.15229 10.9919 1.17928 11.0564 1.21015L18.7872 4.91462C18.9253 4.98079 19.0311 5.05735 19.1043 5.13917C19.1776 5.22112 19.218 5.30838 19.2252 5.39577C19.2324 5.48331 19.2062 5.57098 19.1461 5.65358C19.0859 5.73629 18.9918 5.81391 18.8631 5.88115L15.9851 7.38586L11.6969 5.2587L9.84996 6.1876L14.1406 8.35019L11.1325 9.92292C11.0633 9.95907 10.9887 9.99071 10.91 10.0179C10.8312 10.045 10.7483 10.0676 10.6626 10.0858C10.5769 10.1039 10.4885 10.1175 10.3987 10.1265C10.3089 10.1356 10.2176 10.1401 10.1264 10.1401C10.0352 10.1401 9.94402 10.1356 9.85419 10.1265C9.76438 10.1175 9.67594 10.1039 9.59025 10.0858C9.50459 10.0676 9.42169 10.045 9.34291 10.0179C9.26416 9.99071 9.18955 9.95907 9.12041 9.92292L1.3897 5.88115C1.26069 5.8139 1.16623 5.73629 1.10586 5.65357C1.04557 5.57098 1.01927 5.48331 1.02647 5.39577C1.03365 5.30837 1.07421 5.22112 1.14766 5.13917C1.221 5.05734 1.32714 4.98079 1.46563 4.91461L4.46952 3.47475L8.33214 5.4223L10.179 4.50606L6.3156 2.59032L9.19641 1.21015C9.26085 1.17928 9.33021 1.15228 9.40324 1.12915C9.47625 1.10604 9.55294 1.08678 9.63208 1.07138C9.71121 1.05599 9.79278 1.04444 9.87558 1.03675C9.95836 1.02905 10.0424 1.02521 10.1264 1.02521ZM10.1264 0C10.0108 0 9.89444 0.00536528 9.78065 0.0159583C9.66383 0.026811 9.54797 0.0433209 9.43636 0.0650276C9.31803 0.0880676 9.20281 0.117255 9.09371 0.151791C8.97428 0.189624 8.85978 0.234645 8.75344 0.285601L5.87265 1.66575L4.48107 2.33244L4.48096 2.33237L4.02638 2.55026L3.99538 2.56513L3.9759 2.57447L1.0225 3.99012C0.765564 4.11291 0.550448 4.26945 0.384234 4.45492C0.161615 4.70328 0.0303668 4.9996 0.00471291 5.31181C-0.0229415 5.64818 0.0714942 5.97538 0.277804 6.25802C0.43387 6.47185 0.64854 6.65093 0.915806 6.79025L8.64541 10.8314C8.75854 10.8906 8.88079 10.9429 9.00875 10.9871C9.1264 11.0276 9.25061 11.0618 9.37811 11.0888C9.49897 11.1143 9.62451 11.1338 9.75129 11.1466C9.87479 11.159 10.001 11.1653 10.1264 11.1653C10.2519 11.1653 10.3781 11.159 10.5016 11.1466C10.6284 11.1338 10.7539 11.1143 10.8747 11.0888C11.0023 11.0618 11.1265 11.0276 11.244 10.9871C11.3722 10.9429 11.4944 10.8906 11.6075 10.8314L14.6156 9.2587L16.3853 8.33349L16.4601 8.29437L19.3381 6.78967C19.605 6.65013 19.8193 6.47082 19.9751 6.25672C20.1806 5.97437 20.2746 5.64759 20.247 5.31178C20.2213 5.0001 20.0905 4.70414 19.8686 4.45593C19.7027 4.27026 19.4879 4.11354 19.2302 3.99008L11.4994 0.285616C11.393 0.234662 11.2785 0.18964 11.1591 0.151807C11.05 0.117239 10.9347 0.0880676 10.8166 0.0650739C10.7048 0.0433221 10.5889 0.0268123 10.4721 0.0159441C10.3583 0.00536657 10.242 0 10.1264 0Z" fill="#ED4395"/>
<path d="M19.8686 7.87323C19.7027 7.68756 19.4878 7.53084 19.2302 7.40738L18.67 7.13895L17.5355 7.73212L18.7872 8.33192C18.9253 8.3981 19.0312 8.47466 19.1043 8.55648C19.1776 8.63843 19.218 8.72568 19.2252 8.81307C19.2324 8.90062 19.2062 8.98829 19.1461 9.07089C19.0859 9.15361 18.9918 9.2312 18.8631 9.29846L15.9851 10.8032L13.7665 9.70262L11.9392 10.658L14.1406 11.7675L11.1325 13.3402C11.0633 13.3764 10.9887 13.408 10.91 13.4352C10.8312 13.4623 10.7483 13.4849 10.6626 13.5031C10.577 13.5212 10.4885 13.5348 10.3987 13.5438C10.3089 13.5529 10.2177 13.5574 10.1264 13.5574C10.0352 13.5574 9.94403 13.5529 9.8542 13.5438C9.76439 13.5348 9.67595 13.5212 9.59027 13.5031C9.50461 13.4849 9.4217 13.4623 9.3429 13.4352C9.26416 13.408 9.18956 13.3764 9.12041 13.3402L1.38969 9.29846C1.26071 9.2312 1.16624 9.15361 1.10586 9.07089C1.04557 8.98829 1.01927 8.90062 1.02647 8.81307C1.03364 8.72568 1.07422 8.63843 1.14767 8.55648C1.221 8.47465 1.32715 8.3981 1.46565 8.33192L2.71716 7.73201L1.58273 7.13892L1.02252 7.40745C0.765603 7.53019 0.550467 7.68677 0.384247 7.87223C0.161632 8.1206 0.0303932 8.41691 0.00471366 8.72911C-0.0229433 9.06551 0.0714924 9.39273 0.277822 9.67535C0.433876 9.88916 0.648549 10.0682 0.915817 10.2076L8.64542 14.2487C8.75855 14.3079 8.8808 14.3603 9.00876 14.4044C9.1264 14.4449 9.2506 14.4791 9.37806 14.5061C9.49904 14.5316 9.62457 14.5511 9.75129 14.5639C9.87481 14.5763 10.001 14.5827 10.1264 14.5827C10.2519 14.5827 10.3781 14.5763 10.5016 14.5639C10.6283 14.5511 10.7539 14.5316 10.8747 14.5061C11.0023 14.4791 11.1265 14.4449 11.2439 14.4044C11.3721 14.3602 11.4944 14.3079 11.6075 14.2487L14.6156 12.676L15.9973 11.9536L16.4601 11.7117L19.3381 10.207C19.605 10.0674 19.8193 9.88814 19.9751 9.67402C20.1806 9.39171 20.2746 9.06492 20.247 8.72908C20.2213 8.41741 20.0905 8.12145 19.8686 7.87323Z" fill="#3EBFE0"/>
<path d="M19.8686 11.2905C19.7027 11.1048 19.4878 10.9481 19.2302 10.8246L18.67 10.5562L17.5355 11.1494L18.7872 11.7492C18.9253 11.8153 19.0312 11.8919 19.1043 11.9737C19.1776 12.0557 19.218 12.1429 19.2252 12.2303C19.2324 12.3179 19.2062 12.4055 19.1461 12.4881C19.0859 12.5708 18.9918 12.6484 18.8631 12.7157L15.9851 14.2204L13.7665 13.1199L11.9392 14.0752L14.1406 15.1847L11.1325 16.7575C11.0633 16.7936 10.9887 16.8253 10.91 16.8524C10.8312 16.8795 10.7483 16.9022 10.6626 16.9203C10.577 16.9384 10.4885 16.952 10.3987 16.9611C10.3089 16.9701 10.2177 16.9747 10.1264 16.9747C10.0352 16.9747 9.94403 16.9701 9.8542 16.9611C9.76439 16.952 9.67595 16.9384 9.59027 16.9203C9.50461 16.9022 9.4217 16.8795 9.3429 16.8524C9.26416 16.8253 9.18956 16.7936 9.12041 16.7575L1.38969 12.7157C1.26071 12.6484 1.16624 12.5708 1.10586 12.4881C1.04557 12.4055 1.01927 12.3179 1.02647 12.2303C1.03364 12.1429 1.07422 12.0557 1.14767 11.9737C1.221 11.8919 1.32715 11.8153 1.46565 11.7492L2.71716 11.1492L1.58273 10.5562L1.02252 10.8247C0.765603 10.9474 0.550467 11.104 0.384247 11.2895C0.161632 11.5378 0.0303932 11.8342 0.00471366 12.1463C-0.0229433 12.4827 0.0714924 12.81 0.277822 13.0926C0.433876 13.3064 0.648549 13.4855 0.915817 13.6248L8.64542 17.666C8.75855 17.7251 8.8808 17.7775 9.00876 17.8216C9.1264 17.8622 9.2506 17.8963 9.37806 17.9233C9.49904 17.9489 9.62457 17.9683 9.75129 17.9811C9.87481 17.9936 10.001 17.9999 10.1264 17.9999C10.2519 17.9999 10.3781 17.9936 10.5016 17.9811C10.6283 17.9683 10.7539 17.9489 10.8747 17.9233C11.0023 17.8963 11.1265 17.8622 11.2439 17.8217C11.3721 17.7775 11.4944 17.7251 11.6075 17.666L14.6156 16.0933L15.9973 15.3709L16.4601 15.1289L19.3381 13.6242C19.605 13.4847 19.8193 13.3054 19.9751 13.0913C20.1806 12.8089 20.2746 12.4822 20.247 12.1463C20.2213 11.8346 20.0905 11.5387 19.8686 11.2905Z" fill="#7F54B3"/>
</svg>
