<svg width="168" height="36" viewBox="0 0 168 36" fill="none" xmlns="http://www.w3.org/2000/svg">
<path d="M66.295 5.60327V30.3966H62.2218V19.6647H51.5961V30.3966H47.5229V5.60327H51.5961V15.7685H62.2218V5.60327H66.295ZM78.4104 27.3505C80.5356 27.3505 82.1295 26.3942 82.9795 25.1546L86.1318 26.9964C84.5025 29.4049 81.8461 30.8571 78.375 30.8571C72.5309 30.8571 68.741 26.8547 68.741 21.5419C68.741 16.2997 72.5309 12.2266 78.0916 12.2266C83.3691 12.2266 86.9819 16.4769 86.9819 21.5772C86.9819 22.1086 86.911 22.6753 86.8401 23.1711H72.7434C73.3455 25.9337 75.5769 27.3505 78.4104 27.3505ZM83.1212 20.0542C82.5898 17.0083 80.3584 15.6977 78.0562 15.6977C75.1873 15.6977 73.2392 17.3978 72.7079 20.0542H83.1212ZM106.779 12.6871V30.3966H102.954V27.8464C101.608 29.7237 99.5185 30.8571 96.7559 30.8571C91.9389 30.8571 87.9365 26.7838 87.9365 21.5419C87.9365 16.2644 91.9389 12.2266 96.7559 12.2266C99.5185 12.2266 101.608 13.36 102.954 15.2018V12.6871L106.779 12.6871ZM102.954 21.5419C102.954 18.2479 100.546 15.8749 97.3581 15.8749C94.1704 15.8749 91.7618 18.2479 91.7618 21.5419C91.7618 24.8359 94.1703 27.209 97.3581 27.209C100.546 27.209 102.954 24.8358 102.954 21.5419ZM127.65 5.60327V30.3966H123.825V27.8464C122.479 29.7237 120.389 30.8571 117.627 30.8571C112.81 30.8571 108.807 26.7838 108.807 21.5419C108.807 16.2644 112.81 12.2266 117.627 12.2266C120.389 12.2266 122.479 13.36 123.825 15.2018V5.60327L127.65 5.60327ZM123.825 21.5419C123.825 18.2479 121.417 15.8749 118.229 15.8749C115.041 15.8749 112.633 18.2479 112.633 21.5419C112.633 24.8359 115.041 27.209 118.229 27.209C121.417 27.209 123.825 24.8358 123.825 21.5419Z" fill="#23102E"/>
<path d="M144.887 30.3966L135.112 18.6021V30.3966H131.039V5.60331H135.112V16.725L144.533 5.60331H149.386L139.362 17.6812L149.74 30.3966H144.887ZM150.185 7.58677C150.185 6.24093 151.283 5.14282 152.629 5.14282C153.975 5.14282 155.073 6.24093 155.073 7.58677C155.073 8.89731 153.975 10.0307 152.629 10.0307C151.283 10.0307 150.185 8.89731 150.185 7.58677ZM150.716 12.6871H154.541V30.3966H150.716V12.6871ZM162.751 16.3707V24.8713C162.751 27.1381 164.238 27.1026 167.143 26.9609V30.3966C161.263 31.105 158.926 29.4758 158.926 24.8713V16.3707H155.667V12.6871H158.926V8.86186L162.751 7.72845V12.6871H167.143V16.3707H162.751Z" fill="url(#paint0_linear_299_1756)"/>
<path d="M20.2528 2.05041C20.4208 2.05041 20.5888 2.05811 20.7544 2.0735C20.92 2.08889 21.0832 2.11198 21.2414 2.14276C21.3997 2.17357 21.5531 2.21207 21.6991 2.25831C21.8452 2.30457 21.9839 2.35856 22.1127 2.42031L37.5744 9.82923C37.8506 9.96158 38.0623 10.1147 38.2086 10.2783C38.3551 10.4422 38.4361 10.6168 38.4504 10.7915C38.4648 10.9666 38.4124 11.142 38.2922 11.3072C38.1719 11.4726 37.9835 11.6278 37.7263 11.7623L31.9702 14.7717L23.3937 10.5174L19.6999 12.3752L28.2812 16.7004L22.2649 19.8458C22.1267 19.9181 21.9774 19.9814 21.8199 20.0357C21.6624 20.09 21.4966 20.1353 21.3253 20.1715C21.1539 20.2078 20.977 20.235 20.7974 20.2531C20.6177 20.2712 20.4353 20.2803 20.2529 20.2803C20.0705 20.2803 19.888 20.2712 19.7084 20.2531C19.5288 20.235 19.3519 20.2078 19.1805 20.1715C19.0092 20.1353 18.8434 20.09 18.6858 20.0357C18.5283 19.9814 18.3791 19.9181 18.2408 19.8458L2.7794 11.7623C2.52138 11.6278 2.33246 11.4726 2.21171 11.3071C2.09114 11.142 2.03854 10.9666 2.05293 10.7915C2.0673 10.6167 2.14842 10.4422 2.29532 10.2783C2.442 10.1147 2.65428 9.96158 2.93125 9.82923L8.93903 6.94951L16.6643 10.8446L20.3581 9.01212L12.6312 5.18064L18.3928 2.4203C18.5217 2.35856 18.6604 2.30457 18.8065 2.2583C18.9525 2.21207 19.1059 2.17356 19.2642 2.14275C19.4224 2.11197 19.5856 2.08888 19.7512 2.07349C19.9167 2.0581 20.0848 2.05041 20.2528 2.05041ZM20.2528 0C20.0215 0 19.7889 0.0107306 19.5613 0.0319166C19.3277 0.053622 19.0959 0.0866417 18.8727 0.130055C18.6361 0.176135 18.4056 0.234509 18.1874 0.303583C17.9486 0.379247 17.7196 0.469291 17.5069 0.571202L11.7453 3.3315L8.96215 4.66487L8.96192 4.66475L8.05276 5.10053L7.99075 5.13027L7.9518 5.14894L2.04499 7.98025C1.53113 8.22582 1.1009 8.53891 0.768468 8.90984C0.32323 9.40657 0.0607335 9.9992 0.00942583 10.6236C-0.045883 11.2964 0.142988 11.9508 0.555607 12.516C0.86774 12.9437 1.29708 13.3019 1.83161 13.5805L17.2908 21.6629C17.5171 21.7812 17.7616 21.8859 18.0175 21.9741C18.2528 22.0552 18.5012 22.1236 18.7562 22.1775C18.9979 22.2286 19.249 22.2675 19.5026 22.2931C19.7496 22.318 20.002 22.3307 20.2529 22.3307C20.5037 22.3307 20.7561 22.318 21.0031 22.2931C21.2567 22.2675 21.5078 22.2286 21.7495 22.1775C22.0045 22.1236 22.253 22.0552 22.4879 21.9742C22.7443 21.8859 22.9888 21.7811 23.215 21.6628L29.2312 18.5174L32.7705 16.667L32.9202 16.5887L38.6762 13.5793C39.2101 13.3003 39.6387 12.9416 39.9502 12.5134C40.3611 11.9487 40.5491 11.2952 40.4939 10.6236C40.4427 10.0002 40.1811 9.40829 39.7373 8.91186C39.4053 8.54053 38.9757 8.22708 38.4604 7.98015L22.9988 0.571233C22.786 0.469324 22.5571 0.379281 22.3182 0.303614C22.0999 0.234478 21.8695 0.176135 21.6332 0.130148C21.4096 0.0866443 21.1779 0.0536246 20.9441 0.0318883C20.7167 0.0107331 20.484 0 20.2528 0Z" fill="url(#paint1_linear_299_1756)"/>
<path d="M39.7373 15.7465C39.4053 15.3751 38.9757 15.0617 38.4604 14.8148L37.34 14.2779L35.0709 15.4642L37.5744 16.6638C37.8506 16.7962 38.0623 16.9493 38.2086 17.113C38.3552 17.2769 38.4361 17.4514 38.4505 17.6261C38.4648 17.8012 38.4124 17.9766 38.2922 18.1418C38.1719 18.3072 37.9835 18.4624 37.7262 18.5969L31.9702 21.6063L27.533 19.4052L23.8785 21.3159L28.2812 23.535L22.2649 26.6804C22.1267 26.7528 21.9774 26.816 21.82 26.8703C21.6624 26.9246 21.4966 26.9699 21.3253 27.0061C21.1539 27.0424 20.977 27.0696 20.7974 27.0877C20.6177 27.1058 20.4353 27.1149 20.2529 27.1149C20.0704 27.1149 19.8881 27.1058 19.7084 27.0877C19.5288 27.0696 19.3519 27.0424 19.1805 27.0061C19.0092 26.9699 18.8434 26.9246 18.6858 26.8703C18.5283 26.816 18.3791 26.7528 18.2408 26.6804L2.77938 18.5969C2.52142 18.4624 2.33249 18.3072 2.21172 18.1418C2.09114 17.9766 2.03855 17.8012 2.05295 17.6261C2.06729 17.4514 2.14843 17.2769 2.29534 17.113C2.442 16.9493 2.65429 16.7962 2.9313 16.6638L5.43433 15.464L3.16547 14.2778L2.04504 14.8149C1.53121 15.0604 1.10093 15.3735 0.768495 15.7445C0.323265 16.2412 0.0607864 16.8338 0.00942733 17.4582C-0.0458866 18.131 0.142985 18.7855 0.555645 19.3507C0.867752 19.7783 1.2971 20.1365 1.83163 20.4151L17.2908 28.4975C17.5171 28.6158 17.7616 28.7205 18.0175 28.8088C18.2528 28.8898 18.5012 28.9582 18.7561 29.0122C18.9981 29.0633 19.2491 29.1022 19.5026 29.1277C19.7496 29.1527 20.002 29.1653 20.2529 29.1653C20.5037 29.1653 20.7561 29.1527 21.0032 29.1277C21.2567 29.1022 21.5077 29.0633 21.7494 29.0122C22.0046 28.9582 22.253 28.8898 22.4878 28.8089C22.7443 28.7205 22.9888 28.6158 23.215 28.4975L29.2312 25.352L31.9946 23.9073L32.9202 23.4234L38.6763 20.414C39.2101 20.1349 39.6387 19.7763 39.9502 19.348C40.3611 18.7834 40.5492 18.1298 40.4939 17.4582C40.4427 16.8348 40.1811 16.2429 39.7373 15.7465Z" fill="url(#paint2_linear_299_1756)"/>
<path d="M39.7373 22.5812C39.4053 22.2098 38.9757 21.8964 38.4604 21.6495L37.34 21.1126L35.0709 22.299L37.5744 23.4986C37.8506 23.6309 38.0623 23.784 38.2086 23.9477C38.3552 24.1116 38.4361 24.2861 38.4505 24.4609C38.4648 24.636 38.4124 24.8113 38.2922 24.9765C38.1719 25.1419 37.9835 25.2971 37.7262 25.4316L31.9702 28.4411L27.533 26.24L23.8785 28.1506L28.2812 30.3697L22.2649 33.5152C22.1267 33.5875 21.9774 33.6508 21.82 33.705C21.6624 33.7593 21.4966 33.8046 21.3253 33.8409C21.1539 33.8771 20.977 33.9043 20.7974 33.9224C20.6177 33.9405 20.4353 33.9496 20.2529 33.9496C20.0704 33.9496 19.8881 33.9405 19.7084 33.9224C19.5288 33.9043 19.3519 33.8771 19.1805 33.8409C19.0092 33.8046 18.8434 33.7593 18.6858 33.705C18.5283 33.6508 18.3791 33.5875 18.2408 33.5152L2.77938 25.4316C2.52142 25.2971 2.33249 25.1419 2.21172 24.9765C2.09114 24.8113 2.03855 24.636 2.05295 24.4609C2.06729 24.2861 2.14843 24.1116 2.29534 23.9477C2.442 23.784 2.65429 23.6309 2.9313 23.4986L5.43433 22.2987L3.16547 21.1125L2.04504 21.6496C1.53121 21.8951 1.10093 22.2083 0.768495 22.5792C0.323265 23.0759 0.0607864 23.6685 0.00942733 24.2929C-0.0458866 24.9657 0.142985 25.6202 0.555645 26.1854C0.867752 26.613 1.2971 26.9712 1.83163 27.2499L17.2908 35.3322C17.5171 35.4505 17.7616 35.5553 18.0175 35.6435C18.2528 35.7246 18.5012 35.7929 18.7561 35.8469C18.9981 35.898 19.2491 35.9369 19.5026 35.9624C19.7496 35.9874 20.002 36 20.2529 36C20.5037 36 20.7561 35.9874 21.0032 35.9624C21.2567 35.9369 21.5077 35.898 21.7494 35.8469C22.0046 35.7929 22.253 35.7246 22.4878 35.6436C22.7443 35.5552 22.9888 35.4505 23.215 35.3322L29.2312 32.1868L31.9946 30.742L32.9202 30.2581L38.6763 27.2487C39.2101 26.9696 39.6387 26.611 39.9502 26.1828C40.3611 25.6181 40.5492 24.9646 40.4939 24.2929C40.4427 23.6695 40.1811 23.0776 39.7373 22.5812Z" fill="url(#paint3_linear_299_1756)"/>
<defs>
<linearGradient id="paint0_linear_299_1756" x1="131.039" y1="17.8491" x2="167.143" y2="17.8491" gradientUnits="userSpaceOnUse">
<stop stop-color="#7F54B3"/>
<stop offset="1" stop-color="#ED4395"/>
</linearGradient>
<linearGradient id="paint1_linear_299_1756" x1="-1.02701e-06" y1="11.1653" x2="40.5033" y2="11.1653" gradientUnits="userSpaceOnUse">
<stop stop-color="#7F54B3"/>
<stop offset="1" stop-color="#ED4395"/>
</linearGradient>
<linearGradient id="paint2_linear_299_1756" x1="4.75892e-07" y1="21.7216" x2="40.5034" y2="21.7216" gradientUnits="userSpaceOnUse">
<stop stop-color="#3EBFE0"/>
<stop offset="1" stop-color="#7F54B3"/>
</linearGradient>
<linearGradient id="paint3_linear_299_1756" x1="4.75892e-07" y1="28.5563" x2="40.5034" y2="28.5563" gradientUnits="userSpaceOnUse">
<stop stop-color="#7F54B3"/>
<stop offset="1" stop-color="#23102E"/>
</linearGradient>
</defs>
</svg>
