<?xml version="1.0" standalone="no"?>
<!DOCTYPE svg PUBLIC "-//W3C//DTD SVG 20010904//EN"
 "http://www.w3.org/TR/2001/REC-SVG-20010904/DTD/svg10.dtd">
<svg version="1.0" xmlns="http://www.w3.org/2000/svg"
 width="890.000000pt" height="890.000000pt" viewBox="0 0 890.000000 890.000000"
 preserveAspectRatio="xMidYMid meet">
<metadata>
Created by potrace 1.14, written by Peter Selinger 2001-2017
</metadata>
<g transform="translate(0.000000,890.000000) scale(0.100000,-0.100000)"
fill="#000000" stroke="none">
<path d="M4297 8894 c-2 -2 -21 -6 -43 -8 -83 -10 -130 -17 -154 -26 -24 -9
-103 -31 -125 -35 -6 -2 -31 -11 -55 -22 -25 -11 -60 -26 -77 -33 -18 -7 -33
-16 -33 -20 0 -3 -6 -7 -12 -7 -13 -1 -339 -154 -368 -173 -8 -6 -22 -13 -30
-16 -27 -11 -132 -61 -305 -144 -93 -45 -213 -103 -265 -127 -52 -25 -130 -62
-172 -84 -43 -21 -78 -35 -78 -31 0 4 -4 3 -8 -3 -8 -11 -40 -27 -202 -103
-138 -65 -308 -147 -489 -234 -222 -107 -351 -168 -357 -168 -3 0 -19 -9 -35
-21 -16 -11 -29 -18 -29 -15 0 3 -54 -22 -120 -54 -66 -33 -125 -61 -132 -62
-7 -2 -15 -5 -18 -8 -3 -3 -27 -16 -55 -29 -27 -13 -57 -28 -65 -33 -8 -4 -26
-13 -40 -19 -14 -5 -66 -30 -117 -55 -50 -24 -96 -44 -102 -44 -6 0 -11 -4
-11 -10 0 -5 -5 -10 -10 -10 -6 0 -63 -25 -128 -57 -64 -31 -119 -57 -122 -57
-24 -4 -170 -108 -217 -154 -59 -58 -123 -141 -123 -161 0 -6 -4 -11 -10 -11
-5 0 -10 -8 -10 -18 0 -10 -4 -22 -9 -28 -8 -8 -30 -67 -39 -104 -11 -48 -10
-202 3 -255 39 -171 151 -322 306 -416 30 -18 57 -37 60 -42 3 -5 9 -8 13 -8
6 1 138 -63 198 -97 66 -38 103 -56 116 -58 7 -1 19 -7 26 -13 7 -6 53 -31
102 -57 49 -25 134 -70 189 -99 55 -29 168 -88 250 -131 83 -43 204 -106 270
-141 66 -34 149 -77 185 -95 36 -18 67 -35 70 -38 3 -3 43 -24 90 -48 47 -23
157 -80 245 -127 88 -46 194 -101 235 -122 41 -21 77 -40 80 -43 3 -3 66 -37
141 -75 281 -144 463 -239 469 -245 3 -3 41 -23 85 -45 43 -22 114 -59 157
-82 43 -22 78 -39 78 -36 0 4 8 -1 18 -9 9 -8 49 -30 87 -49 39 -19 72 -36 75
-39 3 -3 61 -33 130 -66 137 -67 279 -115 348 -118 12 -1 22 -3 22 -6 0 -3 8
-6 18 -7 9 0 51 -4 92 -8 182 -17 341 -7 501 31 178 42 175 40 584 254 77 40
144 77 149 81 6 5 18 9 28 9 10 0 18 4 18 8 0 4 15 15 33 23 29 13 96 48 402
209 50 26 153 80 230 120 77 40 181 94 230 120 88 46 136 72 450 236 83 43
204 106 270 141 66 34 154 80 195 100 41 21 77 40 80 43 3 3 48 27 100 54 178
91 325 169 338 179 6 5 12 6 12 3 0 -4 12 1 28 12 15 11 56 34 92 51 36 18 72
36 80 41 46 27 246 129 254 129 5 -1 12 3 15 8 3 4 22 17 41 27 74 40 166 117
224 186 32 40 85 133 80 142 -3 4 -1 8 4 8 5 0 18 28 28 63 20 67 26 264 10
302 -5 11 -11 29 -13 40 -6 36 -65 149 -101 195 -44 56 -148 155 -182 172 -14
7 -27 16 -30 19 -5 8 -584 291 -600 294 -3 1 -57 26 -120 57 -168 82 -382 184
-485 233 -49 23 -145 70 -213 103 -67 33 -125 61 -127 61 -3 1 -62 28 -133 62
-70 34 -192 93 -272 131 -80 38 -197 94 -260 125 -165 80 -234 112 -240 110
-3 -1 -19 8 -37 21 -17 12 -34 22 -37 22 -6 0 -123 56 -611 290 -281 135 -352
168 -385 175 -8 2 -34 10 -57 19 -24 8 -43 13 -43 11 0 -3 -12 0 -27 6 -16 6
-44 13 -63 15 -19 3 -51 7 -70 10 -42 7 -357 14 -363 8z m230 -438 c130 -7
255 -36 311 -72 12 -8 22 -12 22 -9 0 3 15 -2 33 -12 17 -9 35 -16 40 -15 4 1
7 -2 7 -8 0 -5 4 -10 9 -10 5 0 81 -34 168 -76 87 -42 196 -94 243 -116 47
-22 134 -65 194 -94 60 -30 115 -54 123 -54 7 0 13 -4 13 -10 0 -5 4 -10 9
-10 6 0 68 -28 138 -61 326 -156 375 -179 384 -179 5 0 9 -5 9 -10 0 -6 3 -9
8 -8 4 1 50 -19 102 -44 52 -25 158 -76 235 -113 133 -64 234 -112 475 -227
58 -28 155 -74 215 -104 61 -29 184 -88 275 -132 91 -44 203 -98 250 -120 47
-22 144 -68 215 -103 72 -34 135 -63 141 -65 17 -3 117 -75 143 -103 31 -32
51 -82 51 -123 0 -61 -62 -145 -136 -183 -22 -11 -70 -37 -109 -58 -38 -22
-75 -40 -81 -41 -7 -1 -18 -7 -25 -13 -8 -6 -41 -24 -74 -41 -33 -16 -94 -47
-135 -69 -41 -22 -133 -71 -205 -108 -71 -38 -141 -75 -155 -82 -14 -7 -30
-13 -37 -13 -6 0 -13 -4 -15 -9 -1 -5 -21 -17 -43 -28 -22 -11 -114 -58 -205
-106 l-166 -86 -52 29 c-29 16 -55 29 -57 29 -3 1 -237 116 -520 256 -284 140
-520 255 -525 255 -6 0 -10 5 -10 10 0 6 -4 10 -10 10 -5 0 -155 72 -333 161
l-324 160 -119 -58 c-65 -32 -121 -60 -124 -63 -10 -10 -177 -90 -187 -90 -6
0 -13 -3 -15 -7 -1 -5 -79 -46 -171 -92 -93 -46 -165 -87 -160 -91 4 -4 233
-121 507 -259 275 -138 505 -256 513 -262 7 -6 13 -9 13 -6 0 3 54 -23 119
-57 66 -33 241 -122 390 -196 149 -74 271 -137 271 -140 0 -3 -10 -10 -23 -16
-12 -6 -80 -42 -152 -79 -217 -115 -306 -162 -405 -213 -221 -113 -376 -195
-384 -203 -6 -5 -18 -9 -28 -9 -10 0 -18 -4 -18 -8 0 -4 -15 -15 -32 -23 -18
-9 -96 -48 -173 -87 -150 -76 -248 -109 -360 -119 -114 -11 -264 -6 -350 12
-53 11 -109 26 -130 34 -29 13 -304 151 -345 174 -19 11 -102 54 -185 97 -82
43 -184 96 -225 117 -85 45 -336 176 -423 221 -31 16 -64 35 -72 42 -8 7 -15
9 -15 5 0 -4 -6 -3 -12 2 -7 6 -71 41 -143 78 -71 37 -166 87 -210 110 -105
56 -511 267 -620 323 -27 14 -53 30 -56 35 -3 5 -9 8 -13 8 -10 -2 -270 131
-292 150 -7 6 -19 12 -27 13 -8 1 -25 8 -38 17 -13 8 -46 26 -74 39 -27 14
-52 27 -55 30 -3 3 -45 25 -95 49 -49 25 -102 53 -118 63 -15 11 -27 16 -27
12 0 -3 -6 -2 -13 4 -6 6 -59 35 -117 65 -58 30 -142 73 -186 97 -86 44 -149
97 -167 140 -22 50 -17 117 12 159 28 42 108 111 129 111 6 0 12 4 12 10 0 5
3 9 8 8 4 -1 52 20 107 47 55 27 102 50 105 50 3 1 73 34 155 74 83 41 200 97
260 126 61 29 155 74 210 100 55 26 178 85 274 131 95 46 177 84 182 84 7 0
775 -385 1079 -541 36 -18 67 -33 70 -34 3 -1 52 -25 110 -55 58 -30 107 -54
110 -55 3 0 16 -7 30 -15 14 -7 76 -40 139 -71 l114 -58 76 38 c42 21 220 109
396 196 l319 158 -164 81 c-91 45 -166 84 -168 89 -2 4 -8 7 -14 7 -6 0 -129
59 -273 130 -145 72 -266 130 -269 130 -4 0 -12 5 -19 10 -10 9 -252 131 -267
135 -20 5 -469 231 -470 236 0 6 62 36 665 324 61 29 160 76 220 106 61 29
112 54 115 55 15 4 76 34 83 41 5 4 12 8 15 9 4 0 37 15 74 32 133 62 211 85
332 96 33 3 61 8 64 10 2 3 9 3 15 1 7 -2 58 -6 114 -9z"/>
<path d="M752 5225 c-23 -13 -42 -22 -42 -20 0 3 -29 -11 -65 -30 -36 -20 -65
-33 -65 -30 0 3 -18 -6 -40 -20 -22 -14 -42 -25 -46 -25 -3 0 -12 -7 -21 -15
-8 -8 -19 -13 -24 -10 -5 4 -9 1 -9 -5 0 -6 -8 -14 -17 -17 -36 -14 -183 -159
-183 -180 0 -7 -4 -13 -9 -13 -17 0 -81 -146 -97 -220 -16 -76 -17 -196 -2
-238 4 -13 10 -36 13 -52 3 -16 16 -50 29 -75 14 -25 21 -45 18 -45 -4 0 -2
-4 3 -8 6 -4 22 -25 37 -47 27 -40 97 -115 135 -145 55 -44 93 -70 93 -64 0 4
8 0 18 -8 9 -9 63 -39 120 -68 56 -29 105 -56 108 -61 3 -5 14 -9 25 -9 10 0
19 -4 19 -10 0 -5 3 -9 8 -8 4 1 21 -5 37 -14 70 -38 246 -131 320 -169 44
-22 116 -60 160 -83 200 -105 389 -204 490 -255 61 -31 112 -58 115 -61 3 -3
52 -29 110 -59 183 -93 335 -173 345 -182 5 -5 17 -9 27 -9 10 0 18 -3 18 -8
0 -4 15 -14 33 -21 17 -8 53 -27 80 -43 26 -15 47 -25 47 -22 0 4 6 2 13 -4 6
-6 53 -31 102 -57 187 -98 323 -169 400 -209 44 -22 82 -44 83 -48 2 -5 12 -8
23 -8 10 0 19 -4 19 -10 0 -5 9 -10 19 -10 11 0 21 -3 23 -8 2 -4 48 -30 103
-59 55 -28 165 -86 245 -127 254 -134 363 -184 445 -207 44 -12 87 -24 95 -27
19 -7 36 -10 140 -25 121 -17 337 -14 448 8 11 2 37 6 57 9 45 8 132 31 195
54 41 14 270 128 465 232 44 23 145 76 225 117 80 41 151 80 158 85 6 6 12 7
12 2 0 -5 4 -4 8 1 4 6 54 35 112 65 156 80 415 216 570 297 41 22 143 75 225
118 182 95 310 162 430 225 329 173 652 341 735 382 36 18 67 35 70 38 3 3 46
26 95 51 216 110 374 195 425 229 53 36 160 133 160 145 0 3 9 16 21 28 32 34
90 162 103 228 17 78 19 163 7 224 -18 87 -19 92 -29 111 -6 11 -18 38 -27 62
-10 23 -22 42 -27 42 -5 0 -6 5 -3 10 3 6 2 10 -4 10 -5 0 -12 9 -16 19 -5 17
-109 127 -147 156 -44 35 -89 63 -135 86 -29 14 -59 32 -68 39 -8 7 -15 10
-15 7 0 -3 -44 16 -97 43 l-98 48 -115 -60 c-63 -33 -162 -86 -220 -116 -58
-30 -116 -61 -128 -68 -24 -12 -24 -12 15 -30 21 -11 40 -19 43 -19 3 -1 68
-32 145 -69 77 -38 178 -86 225 -108 231 -107 310 -211 251 -330 -36 -72 -61
-88 -451 -290 -96 -50 -181 -95 -187 -100 -7 -6 -13 -7 -13 -2 0 5 -4 4 -8 -1
-4 -6 -38 -27 -77 -46 -38 -20 -128 -66 -200 -104 -71 -37 -161 -84 -200 -104
-38 -20 -72 -39 -75 -42 -3 -4 -16 -10 -30 -14 -14 -4 -33 -14 -42 -23 -10 -8
-18 -11 -18 -6 0 5 -4 4 -8 -1 -4 -6 -19 -16 -33 -22 -24 -10 -55 3 -353 151
-179 90 -326 161 -326 159 0 -3 -12 4 -27 14 -16 11 -48 28 -73 38 -25 11 -47
22 -50 25 -3 3 -36 20 -74 38 l-69 33 -36 -18 c-20 -10 -39 -22 -42 -26 -3 -5
-12 -9 -20 -10 -8 -2 -30 -12 -49 -23 -19 -11 -91 -49 -160 -84 -69 -35 -128
-67 -131 -72 -3 -6 -8 -9 -10 -9 -15 2 -49 -13 -49 -22 0 -6 -3 -7 -7 -4 -3 4
-11 3 -17 -2 -6 -5 -65 -37 -131 -71 -66 -35 -122 -64 -123 -66 -2 -1 10 -10
27 -18 17 -9 32 -15 33 -14 2 2 17 -6 33 -18 26 -17 80 -45 95 -49 3 0 25 -12
50 -25 25 -13 167 -84 315 -159 149 -75 272 -139 273 -143 2 -5 7 -6 12 -3 5
3 15 -2 24 -10 8 -9 19 -16 23 -17 24 -4 43 -11 43 -17 0 -4 -46 -31 -102 -60
-129 -67 -304 -159 -428 -224 -52 -27 -99 -53 -105 -58 -5 -5 -17 -9 -26 -9
-10 0 -19 -3 -21 -7 -1 -5 -34 -24 -71 -43 -38 -19 -108 -55 -155 -81 -288
-151 -447 -229 -494 -243 -107 -31 -201 -42 -333 -40 -212 3 -300 32 -630 207
-104 55 -312 164 -525 275 -69 35 -156 81 -195 102 -38 21 -125 66 -193 101
-67 35 -171 89 -230 120 -125 65 -324 169 -670 350 -53 28 -103 56 -109 61 -7
6 -13 7 -13 3 0 -4 -6 -3 -12 3 -7 6 -58 34 -113 62 -55 29 -145 76 -200 105
-55 29 -154 81 -220 115 -66 34 -165 86 -220 115 -55 29 -163 85 -240 125
-173 90 -222 122 -257 167 -35 45 -44 92 -28 148 20 72 78 121 236 199 164 82
301 146 310 146 4 0 15 7 25 16 9 8 23 16 31 18 15 2 109 48 105 52 -1 1 -45
24 -97 52 -52 27 -160 83 -240 125 l-146 76 -42 -24z"/>
<path d="M8020 3143 c-47 -25 -104 -56 -127 -69 -24 -14 -43 -21 -43 -17 0 4
-4 3 -8 -2 -4 -6 -29 -22 -57 -35 -27 -14 -53 -29 -56 -33 -3 -5 -10 -9 -15
-9 -16 0 -84 -38 -84 -46 0 -5 19 -16 43 -27 90 -39 152 -70 159 -80 4 -5 8
-7 8 -3 0 3 48 -17 108 -46 59 -29 134 -66 167 -81 214 -103 282 -237 177
-352 -45 -49 -77 -68 -407 -238 -82 -42 -156 -82 -162 -87 -7 -6 -13 -7 -13
-2 0 5 -4 4 -8 -1 -6 -10 -39 -27 -262 -142 -41 -21 -76 -41 -78 -45 -2 -5
-12 -8 -22 -8 -10 0 -20 -3 -22 -7 -1 -5 -52 -33 -113 -65 -60 -31 -141 -73
-179 -92 l-70 -37 -305 152 c-169 83 -382 189 -475 235 l-169 84 -166 -87
c-91 -48 -224 -118 -296 -155 -71 -37 -172 -89 -222 -115 -51 -26 -93 -51 -93
-56 0 -4 4 -6 9 -3 5 4 11 3 13 -1 1 -5 145 -79 318 -166 173 -88 377 -190
454 -229 124 -62 136 -71 120 -82 -18 -12 -309 -164 -469 -246 -38 -19 -71
-38 -73 -42 -2 -5 -12 -8 -22 -8 -10 0 -20 -3 -22 -7 -1 -5 -57 -35 -123 -68
-66 -33 -122 -63 -125 -66 -3 -3 -50 -28 -105 -55 -55 -27 -102 -51 -105 -54
-3 -3 -63 -36 -135 -72 -163 -83 -232 -107 -350 -125 -56 -8 -260 -9 -320 -1
-66 8 -177 37 -192 50 -7 6 -13 8 -13 4 0 -6 -142 66 -462 234 -85 44 -187 97
-378 197 -100 52 -126 65 -162 85 -13 7 -57 29 -98 51 -153 80 -326 170 -375
196 -27 14 -53 30 -56 34 -3 5 -9 8 -13 8 -7 -1 -99 42 -106 49 -3 3 -29 17
-57 30 -29 14 -53 28 -53 32 0 5 -6 8 -14 8 -7 0 -44 17 -82 38 -38 20 -91 48
-119 62 -27 14 -51 28 -53 33 -2 4 -12 7 -22 7 -10 0 -20 3 -22 8 -2 4 -34 23
-73 42 -38 19 -72 38 -73 43 -2 4 -8 5 -13 1 -5 -3 -9 0 -9 7 0 7 -3 9 -7 6
-3 -4 -11 -3 -17 2 -6 5 -65 37 -131 71 -66 34 -172 90 -235 123 -63 33 -162
84 -220 115 -58 30 -121 64 -140 76 -19 11 -37 20 -40 20 -11 -2 -50 20 -50
28 0 4 -8 8 -18 8 -10 0 -22 4 -28 9 -5 5 -72 41 -149 81 -154 80 -187 104
-226 161 -42 61 -34 151 18 204 59 59 110 88 363 207 130 61 294 141 299 145
5 4 -17 28 -27 29 -11 1 -49 20 -137 67 -175 95 -298 157 -309 157 -13 0 -82
-32 -207 -95 -37 -19 -69 -31 -73 -28 -3 4 -6 2 -6 -3 0 -5 -20 -20 -45 -34
-25 -14 -45 -28 -45 -32 0 -5 -4 -8 -10 -8 -5 0 -22 -10 -36 -22 -179 -154
-258 -320 -250 -527 2 -47 11 -111 21 -141 19 -63 92 -200 106 -200 5 0 9 -5
9 -11 0 -16 105 -113 165 -153 28 -18 109 -64 180 -101 72 -37 171 -89 220
-115 122 -64 315 -165 400 -209 39 -20 73 -40 77 -46 4 -5 8 -6 8 -1 0 5 6 4
12 -2 7 -5 69 -39 138 -75 69 -35 168 -87 220 -114 52 -28 149 -78 215 -112
65 -34 125 -67 132 -73 7 -6 13 -7 13 -3 0 4 6 3 13 -2 6 -6 59 -35 117 -66
155 -82 327 -172 390 -204 158 -80 306 -158 310 -163 3 -3 46 -25 95 -49 50
-25 93 -50 97 -55 4 -6 8 -7 8 -2 0 5 6 4 13 -2 6 -5 71 -40 142 -77 72 -37
168 -88 215 -113 572 -301 667 -333 1005 -335 152 0 245 9 363 38 12 3 30 7
41 9 67 15 211 77 335 143 43 23 91 48 107 55 16 7 29 16 29 20 0 5 9 8 20 8
11 0 20 5 20 10 0 6 9 10 19 10 11 0 21 3 23 8 2 4 41 27 88 51 47 23 121 62
165 85 90 47 236 124 465 243 85 44 191 100 235 123 44 23 145 76 225 117 80
42 177 92 215 113 39 20 142 75 230 120 88 45 192 99 230 120 39 21 123 65
188 99 64 33 168 87 230 120 61 32 171 89 242 126 72 37 136 72 143 78 6 5 12
6 12 3 0 -4 7 0 16 8 8 9 20 14 25 11 5 -4 9 -2 9 2 0 7 83 55 100 58 3 0 10
3 15 7 6 3 51 27 100 53 210 110 311 205 385 360 13 28 27 58 31 67 18 36 31
165 25 235 -16 179 -114 349 -266 462 -19 14 -37 28 -40 31 -10 10 -68 42
-160 86 -52 26 -120 59 -150 74 l-55 27 -85 -44z"/>
</g>
</svg>
